# xmcd
#
# Track frame offsets:
#	150
#	11222
#	22981
#	35775
#	47348
#	58578
#	71471
#	83164
#	96210
#	109815
#	123345
#	135007
#	144559
#	158280
#	168514
#
# Disc length: 2410 seconds
#
# Revision: 1
# Processed by: cddbd v1.5.2PL0 Copyright (c) Steve Scherf et al.
# Submitted via: audiograbber 1.83.01
#
DISCID=b809680f
DTITLE=Miscalenious - Simply country hits Disc 2
DYEAR=1900
DGENRE=Country
TTITLE0=Dolly Parton - It wasn't God (who made the honky tonk Angels)
TTITLE1=Jeannie C. Riley - Before the next teardrop falls
TTITLE2=Freddy Fender - Almost presuaded
TTITLE3=Hank Williams - Baby, we're really on love
TTITLE4=Johnny Cash - Oh, lonesome me
TTITLE5=Ernest Tubb - Have you ever been lonely
TTITLE6=Eddy Arnold - Bouquet of roses
TTITLE7=Bill Monroe - Let us be lovers again
TTITLE8=Bob Wills - Fade Love
TTITLE9=Jimmie Rodgers - My Caroline Sinshine girl
TTITLE10=Patsy Cline - I've loved and lost again
TTITLE11=Rita Remington - Love me till the morning comes
TTITLE12=Anne Murray - There goes my everything
TTITLE13=The Stanley brothers - The girl behind the bar
TTITLE14=Willie Nelson - the shelter of your arms
EXTD=
EXTT0=
EXTT1=
EXTT2=
EXTT3=
EXTT4=
EXTT5=
EXTT6=
EXTT7=
EXTT8=
EXTT9=
EXTT10=
EXTT11=
EXTT12=
EXTT13=
EXTT14=
PLAYORDER=
